<mxfile host="app.diagrams.net" modified="2023-05-06T09:30:06.425Z" agent="Mozilla/5.0 (Windows NT 10.0; Win64; x64; rv:109.0) Gecko/20100101 Firefox/112.0" etag="nT4RFASclZjxgio19tBh" version="21.2.9" type="device">
  <diagram name="Page-1" id="jFEMx681TeEaOXfy0D0k">
    <mxGraphModel dx="880" dy="442" grid="1" gridSize="10" guides="1" tooltips="1" connect="1" arrows="1" fold="1" page="1" pageScale="1" pageWidth="850" pageHeight="1100" math="0" shadow="0">
      <root>
        <mxCell id="0" />
        <mxCell id="1" parent="0" />
        <mxCell id="-RHoygchYiFBm0QI4CZZ-1" value="" style="rounded=0;whiteSpace=wrap;html=1;" vertex="1" parent="1">
          <mxGeometry x="190" y="70" width="30" height="30" as="geometry" />
        </mxCell>
        <mxCell id="-RHoygchYiFBm0QI4CZZ-2" value="" style="rounded=0;whiteSpace=wrap;html=1;" vertex="1" parent="1">
          <mxGeometry x="220" y="70" width="30" height="30" as="geometry" />
        </mxCell>
        <mxCell id="-RHoygchYiFBm0QI4CZZ-3" value="" style="endArrow=classic;html=1;rounded=0;" edge="1" parent="1" source="-RHoygchYiFBm0QI4CZZ-7">
          <mxGeometry width="50" height="50" relative="1" as="geometry">
            <mxPoint x="470" y="250" as="sourcePoint" />
            <mxPoint x="205" y="140" as="targetPoint" />
          </mxGeometry>
        </mxCell>
        <mxCell id="-RHoygchYiFBm0QI4CZZ-5" value="" style="endArrow=classic;html=1;rounded=0;entryX=0;entryY=0.5;entryDx=0;entryDy=0;" edge="1" parent="1" source="-RHoygchYiFBm0QI4CZZ-8" target="-RHoygchYiFBm0QI4CZZ-10">
          <mxGeometry width="50" height="50" relative="1" as="geometry">
            <mxPoint x="215" y="110" as="sourcePoint" />
            <mxPoint x="235" y="140" as="targetPoint" />
          </mxGeometry>
        </mxCell>
        <mxCell id="-RHoygchYiFBm0QI4CZZ-7" value="" style="shape=waypoint;sketch=0;fillStyle=solid;size=6;pointerEvents=1;points=[];fillColor=none;resizable=0;rotatable=0;perimeter=centerPerimeter;snapToPoint=1;" vertex="1" parent="1">
          <mxGeometry x="195" y="75" width="20" height="20" as="geometry" />
        </mxCell>
        <mxCell id="-RHoygchYiFBm0QI4CZZ-8" value="" style="shape=waypoint;sketch=0;fillStyle=solid;size=6;pointerEvents=1;points=[];fillColor=none;resizable=0;rotatable=0;perimeter=centerPerimeter;snapToPoint=1;" vertex="1" parent="1">
          <mxGeometry x="225" y="75" width="20" height="20" as="geometry" />
        </mxCell>
        <mxCell id="-RHoygchYiFBm0QI4CZZ-9" value="1" style="rounded=0;whiteSpace=wrap;html=1;" vertex="1" parent="1">
          <mxGeometry x="190" y="140" width="30" height="30" as="geometry" />
        </mxCell>
        <mxCell id="-RHoygchYiFBm0QI4CZZ-10" value="2" style="rounded=0;whiteSpace=wrap;html=1;" vertex="1" parent="1">
          <mxGeometry x="280" y="70" width="30" height="30" as="geometry" />
        </mxCell>
        <mxCell id="-RHoygchYiFBm0QI4CZZ-34" style="edgeStyle=orthogonalEdgeStyle;rounded=0;orthogonalLoop=1;jettySize=auto;html=1;exitX=1;exitY=0.5;exitDx=0;exitDy=0;entryX=0;entryY=0.5;entryDx=0;entryDy=0;" edge="1" parent="1" target="-RHoygchYiFBm0QI4CZZ-1">
          <mxGeometry relative="1" as="geometry">
            <mxPoint x="140" y="85" as="sourcePoint" />
          </mxGeometry>
        </mxCell>
      </root>
    </mxGraphModel>
  </diagram>
</mxfile>
